<svg width="47" height="40" viewBox="0 0 47 40" fill="none" xmlns="http://www.w3.org/2000/svg">
<path d="M8.27062 20.9258H38.7701C39.4096 20.9258 39.9295 21.4742 39.8738 22.1186C39.2054 29.7903 32.1391 35.8271 23.5214 35.8271C14.9036 35.8271 7.83736 29.7903 7.1689 22.1186C7.11114 21.4742 7.63105 20.9258 8.27062 20.9258Z" fill="#FF6633"/>
<path d="M29.0264 9.44656C29.3669 9.44656 29.7052 9.29225 29.926 8.99614C31.0401 7.5156 33.1568 6.59391 35.449 6.59391C37.7412 6.59391 39.8579 7.51352 40.972 8.99614C41.3496 9.49869 42.0593 9.59462 42.5545 9.21301C43.0517 8.83141 43.1466 8.11408 42.769 7.61361C41.2134 5.54503 38.4777 4.31055 35.449 4.31055C32.4203 4.31055 29.6846 5.54503 28.1269 7.61361C27.7494 8.11616 27.8463 8.83141 28.3415 9.21301C28.5478 9.37149 28.7871 9.44656 29.0264 9.44656Z" fill="#414141"/>
<path d="M5.17292 9.44656C5.51334 9.44656 5.85169 9.29225 6.07245 8.99614C7.18655 7.5156 9.30333 6.59391 11.5955 6.59391C13.8876 6.59391 16.0044 7.51352 17.1185 8.99614C17.4961 9.49869 18.2058 9.59462 18.7009 9.21301C19.1982 8.83141 19.2931 8.11408 18.9155 7.61361C17.3599 5.54503 14.6242 4.31055 11.5955 4.31055C8.56679 4.31055 5.83106 5.54503 4.27339 7.61361C3.89583 8.11616 3.9928 8.83141 4.48796 9.21301C4.69427 9.37149 4.93359 9.44656 5.17292 9.44656Z" fill="#414141"/>
</svg>
